<svg xmlns="http://www.w3.org/2000/svg" style="width: 100%; height: 100%; background-color: var(--desk-bg); touch-action: none; --diagram-edge: #111827; --diagram-text: #111827; --diagram-group: #64748b;" viewBox="-172.5 -337.15625 1725 970.3125"><style>text { font-family: Inter, -apple-system, sans-serif; }</style><defs><pattern id="desk-grid" x="-10" y="-10" width="20" height="20" patternUnits="userSpaceOnUse" patternTransform="translate(147.6171875, 347) scale(1)"><circle cx="10" cy="10" r="1.5" fill="var(--desk-grid)"/></pattern><pattern id="canvas-grid" x="-10" y="-10" width="20" height="20" patternUnits="userSpaceOnUse"><circle cx="10" cy="10" r="1.5" fill="#f1f5f9"/></pattern><pattern id="checkerboard-light" x="0" y="0" width="20" height="20" patternUnits="userSpaceOnUse"><rect width="20" height="20" fill="#ffffff"/><rect width="10" height="10" fill="#e5e5e5"/><rect x="10" y="10" width="10" height="10" fill="#e5e5e5"/></pattern><pattern id="checkerboard-dark" x="0" y="0" width="20" height="20" patternUnits="userSpaceOnUse"><rect width="20" height="20" fill="#0f172a"/><rect width="10" height="10" fill="#1e293b"/><rect x="10" y="10" width="10" height="10" fill="#1e293b"/></pattern></defs><g id="diagram-viewport"><g id="canvas-paper"><rect class="preview-bg-rect" x="-172.5" y="-337.15625" width="1725" height="970.3125" fill="url(#checkerboard-light)" rx="8" ry="8"/><rect x="-172.5" y="-337.15625" width="1725" height="970.3125" fill="transparent" rx="8" ry="8" style="filter: none;"/></g><g class="matrix-grid"><g><path d="M 244.5 -30 L 402 -30 Q 410 -30 410 -22 L 410 242 Q 410 250 402 250 L -22 250 Q -30 250 -30 242 L -30 -22 Q -30 -30 -22 -30 L 135.5 -30" fill="none" stroke="var(--diagram-group)" stroke-width="2" stroke-dasharray="6, 6" opacity="0.6"/><text x="190" y="-24" font-size="20" fill="var(--diagram-group)" opacity="0.85" font-weight="700" text-anchor="middle" style="pointer-events: none;">leaders</text></g><g><path d="M 766.5 -30 L 902 -30 Q 910 -30 910 -22 L 910 242 Q 910 250 902 250 L 478 250 Q 470 250 470 242 L 470 -22 Q 470 -30 478 -30 L 613.5 -30" fill="none" stroke="var(--diagram-group)" stroke-width="2" stroke-dasharray="6, 6" opacity="0.6"/><text x="690" y="-24" font-size="20" fill="var(--diagram-group)" opacity="0.85" font-weight="700" text-anchor="middle" style="pointer-events: none;">challengers</text></g><g><path d="M 1233.5 -30 L 1402 -30 Q 1410 -30 1410 -22 L 1410 242 Q 1410 250 1402 250 L 978 250 Q 970 250 970 242 L 970 -22 Q 970 -30 978 -30 L 1146.5 -30" fill="none" stroke="var(--diagram-group)" stroke-width="2" stroke-dasharray="6, 6" opacity="0.6"/><text x="1190" y="-24" font-size="20" fill="var(--diagram-group)" opacity="0.85" font-weight="700" text-anchor="middle" style="pointer-events: none;">niche</text></g><g><path d="M 250 310 L 402 310 Q 410 310 410 318 L 410 442 Q 410 450 402 450 L -22 450 Q -30 450 -30 442 L -30 318 Q -30 310 -22 310 L 130 310" fill="none" stroke="var(--diagram-group)" stroke-width="2" stroke-dasharray="6, 6" opacity="0.6"/><text x="190" y="316" font-size="20" fill="var(--diagram-group)" opacity="0.85" font-weight="700" text-anchor="middle" style="pointer-events: none;">emerging</text></g><g><path d="M 739 310 L 902 310 Q 910 310 910 318 L 910 442 Q 910 450 902 450 L 478 450 Q 470 450 470 442 L 470 318 Q 470 310 478 310 L 641 310" fill="none" stroke="var(--diagram-group)" stroke-width="2" stroke-dasharray="6, 6" opacity="0.6"/><text x="690" y="316" font-size="20" fill="var(--diagram-group)" opacity="0.85" font-weight="700" text-anchor="middle" style="pointer-events: none;">legacy</text></g><g><path d="M 1255.5 310 L 1402 310 Q 1410 310 1410 318 L 1410 442 Q 1410 450 1402 450 L 978 450 Q 970 450 970 442 L 970 318 Q 970 310 978 310 L 1124.5 310" fill="none" stroke="var(--diagram-group)" stroke-width="2" stroke-dasharray="6, 6" opacity="0.6"/><text x="1190" y="316" font-size="20" fill="var(--diagram-group)" opacity="0.85" font-weight="700" text-anchor="middle" style="pointer-events: none;">specialty</text></g></g><g><g class="" style="cursor: pointer;"><path d="M 160 40 L 220 40" fill="none" stroke="transparent" stroke-width="20"/><path d="M 160 40 L 220 40" fill="none" stroke="#111827" stroke-width="2" stroke-dasharray="5, 5" opacity="1" marker-start="none" marker-end="url(#arrow-e1)"/><path id="e1_path" d="M 160 40 L 220 40" fill="none" stroke="none"/><defs><marker id="arrow-e1" markerWidth="10" markerHeight="6.4" refX="8" refY="3.2" orient="auto-start-reverse"><path d="M 0 0 L 8 3.2 L 0 6.4 z" fill="#111827" stroke="none"/></marker><marker id="cf-one-e1" markerWidth="12" markerHeight="12" refX="10" refY="6" orient="auto-start-reverse"><line x1="8" y1="1" x2="8" y2="11" stroke="#111827" stroke-width="2"/></marker><marker id="cf-many-e1" markerWidth="14" markerHeight="14" refX="12" refY="7" orient="auto-start-reverse"><line x1="12" y1="1" x2="4" y2="7" stroke="#111827" stroke-width="1.5"/><line x1="12" y1="13" x2="4" y2="7" stroke="#111827" stroke-width="1.5"/><line x1="12" y1="7" x2="4" y2="7" stroke="#111827" stroke-width="1.5"/></marker></defs></g><g class="" style="cursor: pointer;"><path d="M 300 80 L 300 176 Q 300 180 296 180 L 160 180" fill="none" stroke="transparent" stroke-width="20"/><path d="M 300 80 L 300 176 Q 300 180 296 180 L 160 180" fill="none" stroke="#111827" stroke-width="2" stroke-dasharray="5, 5" opacity="1" marker-start="none" marker-end="url(#arrow-e2)"/><path id="e2_path" d="M 160 180 L 300 180" fill="none" stroke="none"/><defs><marker id="arrow-e2" markerWidth="10" markerHeight="6.4" refX="8" refY="3.2" orient="auto-start-reverse"><path d="M 0 0 L 8 3.2 L 0 6.4 z" fill="#111827" stroke="none"/></marker><marker id="cf-one-e2" markerWidth="12" markerHeight="12" refX="10" refY="6" orient="auto-start-reverse"><line x1="8" y1="1" x2="8" y2="11" stroke="#111827" stroke-width="2"/></marker><marker id="cf-many-e2" markerWidth="14" markerHeight="14" refX="12" refY="7" orient="auto-start-reverse"><line x1="12" y1="1" x2="4" y2="7" stroke="#111827" stroke-width="1.5"/><line x1="12" y1="13" x2="4" y2="7" stroke="#111827" stroke-width="1.5"/><line x1="12" y1="7" x2="4" y2="7" stroke="#111827" stroke-width="1.5"/></marker></defs></g><g class="" style="cursor: pointer;"><path d="M 660 40 L 696 40 Q 700 40 700 36 L 700 -16 Q 700 -20 704 -20 L 956 -20 Q 960 -20 960 -16 L 960 36 Q 960 40 964 40 L 1000 40" fill="none" stroke="transparent" stroke-width="20"/><path d="M 660 40 L 696 40 Q 700 40 700 36 L 700 -16 Q 700 -20 704 -20 L 956 -20 Q 960 -20 960 -16 L 960 36 Q 960 40 964 40 L 1000 40" fill="none" stroke="#111827" stroke-width="2" stroke-dasharray="none" opacity="1" marker-start="none" marker-end="url(#arrow-e3)"/><text font-size="16" fill="#111827" dominant-baseline="text-after-edge" font-weight="bold"><textPath href="#e3_path" startOffset="50%" text-anchor="middle">targets</textPath></text><path id="e3_path" d="M 700 -20 L 960 -20" fill="none" stroke="none"/><defs><marker id="arrow-e3" markerWidth="10" markerHeight="6.4" refX="8" refY="3.2" orient="auto-start-reverse"><path d="M 0 0 L 8 3.2 L 0 6.4 z" fill="#111827" stroke="none"/></marker><marker id="cf-one-e3" markerWidth="12" markerHeight="12" refX="10" refY="6" orient="auto-start-reverse"><line x1="8" y1="1" x2="8" y2="11" stroke="#111827" stroke-width="2"/></marker><marker id="cf-many-e3" markerWidth="14" markerHeight="14" refX="12" refY="7" orient="auto-start-reverse"><line x1="12" y1="1" x2="4" y2="7" stroke="#111827" stroke-width="1.5"/><line x1="12" y1="13" x2="4" y2="7" stroke="#111827" stroke-width="1.5"/><line x1="12" y1="7" x2="4" y2="7" stroke="#111827" stroke-width="1.5"/></marker></defs></g><g class="" style="cursor: pointer;"><path d="M 800 80 L 800 316 Q 800 320 796 320 L 424 320 Q 420 320 420 324 L 420 376 Q 420 380 416 380 L 380 380" fill="none" stroke="transparent" stroke-width="20"/><path d="M 800 80 L 800 316 Q 800 320 796 320 L 424 320 Q 420 320 420 324 L 420 376 Q 420 380 416 380 L 380 380" fill="none" stroke="#111827" stroke-width="2" stroke-dasharray="none" opacity="1" marker-start="none" marker-end="url(#arrow-e4)"/><text font-size="16" fill="#111827" dominant-baseline="text-after-edge" font-weight="bold"><textPath href="#e4_path" startOffset="50%" text-anchor="middle">competes</textPath></text><path id="e4_path" d="M 420 320 L 800 320" fill="none" stroke="none"/><defs><marker id="arrow-e4" markerWidth="10" markerHeight="6.4" refX="8" refY="3.2" orient="auto-start-reverse"><path d="M 0 0 L 8 3.2 L 0 6.4 z" fill="#111827" stroke="none"/></marker><marker id="cf-one-e4" markerWidth="12" markerHeight="12" refX="10" refY="6" orient="auto-start-reverse"><line x1="8" y1="1" x2="8" y2="11" stroke="#111827" stroke-width="2"/></marker><marker id="cf-many-e4" markerWidth="14" markerHeight="14" refX="12" refY="7" orient="auto-start-reverse"><line x1="12" y1="1" x2="4" y2="7" stroke="#111827" stroke-width="1.5"/><line x1="12" y1="13" x2="4" y2="7" stroke="#111827" stroke-width="1.5"/><line x1="12" y1="7" x2="4" y2="7" stroke="#111827" stroke-width="1.5"/></marker></defs></g><g class="" style="cursor: pointer;"><path d="M 1080 220 L 1080 340" fill="none" stroke="transparent" stroke-width="20"/><path d="M 1080 220 L 1080 340" fill="none" stroke="#111827" stroke-width="2" stroke-dasharray="none" opacity="1" marker-start="none" marker-end="url(#arrow-e5)"/><text font-size="16" fill="#111827" dominant-baseline="text-after-edge" font-weight="bold"><textPath href="#e5_path" startOffset="50%" text-anchor="middle">overlaps</textPath></text><path id="e5_path" d="M 1080 340 L 1080 220" fill="none" stroke="none"/><defs><marker id="arrow-e5" markerWidth="10" markerHeight="6.4" refX="8" refY="3.2" orient="auto-start-reverse"><path d="M 0 0 L 8 3.2 L 0 6.4 z" fill="#111827" stroke="none"/></marker><marker id="cf-one-e5" markerWidth="12" markerHeight="12" refX="10" refY="6" orient="auto-start-reverse"><line x1="8" y1="1" x2="8" y2="11" stroke="#111827" stroke-width="2"/></marker><marker id="cf-many-e5" markerWidth="14" markerHeight="14" refX="12" refY="7" orient="auto-start-reverse"><line x1="12" y1="1" x2="4" y2="7" stroke="#111827" stroke-width="1.5"/><line x1="12" y1="13" x2="4" y2="7" stroke="#111827" stroke-width="1.5"/><line x1="12" y1="7" x2="4" y2="7" stroke="#111827" stroke-width="1.5"/></marker></defs></g><g class="" style="cursor: pointer;"><path d="M 660 380 L 696 380 Q 700 380 700 384 L 700 436 Q 700 440 704 440 L 1176 440 Q 1180 440 1180 436 L 1180 44 Q 1180 40 1184 40 L 1220 40" fill="none" stroke="transparent" stroke-width="20"/><path d="M 660 380 L 696 380 Q 700 380 700 384 L 700 436 Q 700 440 704 440 L 1176 440 Q 1180 440 1180 436 L 1180 44 Q 1180 40 1184 40 L 1220 40" fill="none" stroke="#111827" stroke-width="2" stroke-dasharray="none" opacity="1" marker-start="none" marker-end="url(#arrow-e6)"/><text font-size="16" fill="#111827" dominant-baseline="text-after-edge" font-weight="bold"><textPath href="#e6_path" startOffset="50%" text-anchor="middle">migrates</textPath></text><path id="e6_path" d="M 700 440 L 1180 440" fill="none" stroke="none"/><defs><marker id="arrow-e6" markerWidth="10" markerHeight="6.4" refX="8" refY="3.2" orient="auto-start-reverse"><path d="M 0 0 L 8 3.2 L 0 6.4 z" fill="#111827" stroke="none"/></marker><marker id="cf-one-e6" markerWidth="12" markerHeight="12" refX="10" refY="6" orient="auto-start-reverse"><line x1="8" y1="1" x2="8" y2="11" stroke="#111827" stroke-width="2"/></marker><marker id="cf-many-e6" markerWidth="14" markerHeight="14" refX="12" refY="7" orient="auto-start-reverse"><line x1="12" y1="1" x2="4" y2="7" stroke="#111827" stroke-width="1.5"/><line x1="12" y1="13" x2="4" y2="7" stroke="#111827" stroke-width="1.5"/><line x1="12" y1="7" x2="4" y2="7" stroke="#111827" stroke-width="1.5"/></marker></defs></g></g><g><g transform="translate(0, 0)" filter="none" class="diagram-node  " data-node-id="aws_1" data-logical-x="80" data-logical-y="40" style="cursor: grab;"><g><rect width="160" height="80" rx="4" ry="4" fill="#312e81" stroke="#312e81" stroke-width="2"/><rect width="160" height="4" rx="4" fill="#312e81" style="clip-path: inset(0px 0px 76px);"/><text x="80" y="38.4" text-anchor="middle" dominant-baseline="central" fill="#ffffff" font-size="16" font-weight="normal" font-style="normal" style="pointer-events: none; user-select: none;">AWS</text></g></g><g transform="translate(220, 0)" filter="none" class="diagram-node  " data-node-id="azure_2" data-logical-x="300" data-logical-y="40" style="cursor: grab;"><g><rect width="160" height="80" rx="4" ry="4" fill="#312e81" stroke="#312e81" stroke-width="2"/><rect width="160" height="4" rx="4" fill="#312e81" style="clip-path: inset(0px 0px 76px);"/><text x="80" y="38.4" text-anchor="middle" dominant-baseline="central" fill="#ffffff" font-size="16" font-weight="normal" font-style="normal" style="pointer-events: none; user-select: none;">Azure</text></g></g><g transform="translate(0, 140)" filter="none" class="diagram-node  " data-node-id="gcp_3" data-logical-x="80" data-logical-y="180" style="cursor: grab;"><g><rect width="160" height="80" rx="4" ry="4" fill="#312e81" stroke="#312e81" stroke-width="2"/><rect width="160" height="4" rx="4" fill="#312e81" style="clip-path: inset(0px 0px 76px);"/><text x="80" y="38.4" text-anchor="middle" dominant-baseline="central" fill="#ffffff" font-size="16" font-weight="normal" font-style="normal" style="pointer-events: none; user-select: none;">GCP</text></g></g><g transform="translate(500, 0)" filter="none" class="diagram-node  " data-node-id="digitalocean_4" data-logical-x="580" data-logical-y="40" style="cursor: grab;"><g><rect width="160" height="80" rx="4" ry="4" fill="#818cf8" stroke="#818cf8" stroke-width="2"/><rect width="160" height="4" rx="4" fill="#818cf8" style="clip-path: inset(0px 0px 76px);"/><text x="80" y="38.4" text-anchor="middle" dominant-baseline="central" fill="#1f2937" font-size="16" font-weight="normal" font-style="normal" style="pointer-events: none; user-select: none;">DigitalOcean</text></g></g><g transform="translate(720, 0)" filter="none" class="diagram-node  " data-node-id="vercel_5" data-logical-x="800" data-logical-y="40" style="cursor: grab;"><g><rect width="160" height="80" rx="4" ry="4" fill="#818cf8" stroke="#818cf8" stroke-width="2"/><rect width="160" height="4" rx="4" fill="#818cf8" style="clip-path: inset(0px 0px 76px);"/><text x="80" y="38.4" text-anchor="middle" dominant-baseline="central" fill="#1f2937" font-size="16" font-weight="normal" font-style="normal" style="pointer-events: none; user-select: none;">Vercel</text></g></g><g transform="translate(500, 140)" filter="none" class="diagram-node  " data-node-id="fly_io_6" data-logical-x="580" data-logical-y="180" style="cursor: grab;"><g><rect width="160" height="80" rx="4" ry="4" fill="#818cf8" stroke="#818cf8" stroke-width="2"/><rect width="160" height="4" rx="4" fill="#818cf8" style="clip-path: inset(0px 0px 76px);"/><text x="80" y="38.4" text-anchor="middle" dominant-baseline="central" fill="#1f2937" font-size="16" font-weight="normal" font-style="normal" style="pointer-events: none; user-select: none;">Fly.io</text></g></g><g transform="translate(1000, 0)" filter="none" class="diagram-node  " data-node-id="render_7" data-logical-x="1080" data-logical-y="40" style="cursor: grab;"><g><rect width="160" height="80" rx="4" ry="4" fill="#10b981" stroke="#10b981" stroke-width="2"/><rect width="160" height="4" rx="4" fill="#10b981" style="clip-path: inset(0px 0px 76px);"/><text x="80" y="38.4" text-anchor="middle" dominant-baseline="central" fill="#ffffff" font-size="16" font-weight="normal" font-style="normal" style="pointer-events: none; user-select: none;">Render</text></g></g><g transform="translate(1220, 0)" filter="none" class="diagram-node  " data-node-id="railway_8" data-logical-x="1300" data-logical-y="40" style="cursor: grab;"><g><rect width="160" height="80" rx="4" ry="4" fill="#10b981" stroke="#10b981" stroke-width="2"/><rect width="160" height="4" rx="4" fill="#10b981" style="clip-path: inset(0px 0px 76px);"/><text x="80" y="38.4" text-anchor="middle" dominant-baseline="central" fill="#ffffff" font-size="16" font-weight="normal" font-style="normal" style="pointer-events: none; user-select: none;">Railway</text></g></g><g transform="translate(1000, 140)" filter="none" class="diagram-node  " data-node-id="supabase_9" data-logical-x="1080" data-logical-y="180" style="cursor: grab;"><g><rect width="160" height="80" rx="4" ry="4" fill="#10b981" stroke="#10b981" stroke-width="2"/><rect width="160" height="4" rx="4" fill="#10b981" style="clip-path: inset(0px 0px 76px);"/><text x="80" y="38.4" text-anchor="middle" dominant-baseline="central" fill="#ffffff" font-size="16" font-weight="normal" font-style="normal" style="pointer-events: none; user-select: none;">Supabase</text></g></g><g transform="translate(0, 340)" filter="none" class="diagram-node  " data-node-id="deno_deploy_10" data-logical-x="80" data-logical-y="380" style="cursor: grab;"><g><rect width="160" height="80" rx="4" ry="4" fill="#9f1239" stroke="#9f1239" stroke-width="2"/><rect width="160" height="4" rx="4" fill="#9f1239" style="clip-path: inset(0px 0px 76px);"/><text x="80" y="38.4" text-anchor="middle" dominant-baseline="central" fill="#ffffff" font-size="16" font-weight="normal" font-style="normal" style="pointer-events: none; user-select: none;">Deno Deploy</text></g></g><g transform="translate(220, 340)" filter="none" class="diagram-node  " data-node-id="cf_workers_11" data-logical-x="300" data-logical-y="380" style="cursor: grab;"><g><rect width="160" height="80" rx="4" ry="4" fill="#9f1239" stroke="#9f1239" stroke-width="2"/><rect width="160" height="4" rx="4" fill="#9f1239" style="clip-path: inset(0px 0px 76px);"/><text x="80" y="38.4" text-anchor="middle" dominant-baseline="central" fill="#ffffff" font-size="16" font-weight="normal" font-style="normal" style="pointer-events: none; user-select: none;">CF Workers</text></g></g><g transform="translate(500, 340)" filter="none" class="diagram-node  " data-node-id="heroku_12" data-logical-x="580" data-logical-y="380" style="cursor: grab;"><g><rect width="160" height="80" rx="4" ry="4" fill="#fb7185" stroke="#fb7185" stroke-width="2"/><rect width="160" height="4" rx="4" fill="#fb7185" style="clip-path: inset(0px 0px 76px);"/><text x="80" y="38.4" text-anchor="middle" dominant-baseline="central" fill="#1f2937" font-size="16" font-weight="normal" font-style="normal" style="pointer-events: none; user-select: none;">Heroku</text></g></g><g transform="translate(720, 340)" filter="none" class="diagram-node  " data-node-id="linode_13" data-logical-x="800" data-logical-y="380" style="cursor: grab;"><g><rect width="160" height="80" rx="4" ry="4" fill="#fb7185" stroke="#fb7185" stroke-width="2"/><rect width="160" height="4" rx="4" fill="#fb7185" style="clip-path: inset(0px 0px 76px);"/><text x="80" y="38.4" text-anchor="middle" dominant-baseline="central" fill="#1f2937" font-size="16" font-weight="normal" font-style="normal" style="pointer-events: none; user-select: none;">Linode</text></g></g><g transform="translate(1000, 340)" filter="none" class="diagram-node  " data-node-id="planetscale_14" data-logical-x="1080" data-logical-y="380" style="cursor: grab;"><g><rect width="160" height="80" rx="4" ry="4" fill="#4f46e5" stroke="#4f46e5" stroke-width="2"/><rect width="160" height="4" rx="4" fill="#4f46e5" style="clip-path: inset(0px 0px 76px);"/><text x="80" y="38.4" text-anchor="middle" dominant-baseline="central" fill="#ffffff" font-size="16" font-weight="normal" font-style="normal" style="pointer-events: none; user-select: none;">PlanetScale</text></g></g><g transform="translate(1220, 340)" filter="none" class="diagram-node  " data-node-id="neon_15" data-logical-x="1300" data-logical-y="380" style="cursor: grab;"><g><rect width="160" height="80" rx="4" ry="4" fill="#4f46e5" stroke="#4f46e5" stroke-width="2"/><rect width="160" height="4" rx="4" fill="#4f46e5" style="clip-path: inset(0px 0px 76px);"/><text x="80" y="38.4" text-anchor="middle" dominant-baseline="central" fill="#ffffff" font-size="16" font-weight="normal" font-style="normal" style="pointer-events: none; user-select: none;">Neon</text></g></g><g transform="translate(310, -160)" filter="none" class="diagram-node  " data-node-id="__SYSTEM_TITLE__" data-logical-x="690" data-logical-y="-120" style="cursor: grab;"><g><rect x="77.380859375" y="-3.6000000000000014" width="605.23828125" height="87.2" fill="transparent" stroke="none"/><text x="380" y="34.4" text-anchor="middle" dominant-baseline="central" fill="#111827" font-size="56" font-weight="normal" font-style="normal" style="pointer-events: none; user-select: none;">Competitive Landscape</text></g></g></g><g/></g></svg>