<svg xmlns="http://www.w3.org/2000/svg" viewBox="-222.5 -944.5 2225 2225"><style>text { font-family: Inter, -apple-system, sans-serif; }</style><defs><pattern id="desk-grid" x="-10" y="-10" width="20" height="20" patternUnits="userSpaceOnUse" patternTransform="translate(100, 341.00568181818187) scale(0.8380681818181818)"><circle cx="10" cy="10" r="1.5" fill="var(--desk-grid)"/></pattern><pattern id="canvas-grid" x="-10" y="-10" width="20" height="20" patternUnits="userSpaceOnUse"><circle cx="10" cy="10" r="1.5" fill="rgba(255,255,255,0.04)"/></pattern><pattern id="checkerboard-light" x="0" y="0" width="20" height="20" patternUnits="userSpaceOnUse"><rect width="20" height="20" fill="#ffffff"/><rect width="10" height="10" fill="#e5e5e5"/><rect x="10" y="10" width="10" height="10" fill="#e5e5e5"/></pattern><pattern id="checkerboard-dark" x="0" y="0" width="20" height="20" patternUnits="userSpaceOnUse"><rect width="20" height="20" fill="#0f172a"/><rect width="10" height="10" fill="#1e293b"/><rect x="10" y="10" width="10" height="10" fill="#1e293b"/></pattern></defs><g id="diagram-viewport"><g id="canvas-paper"><rect x="-222.5" y="-944.5" width="2225" height="2225" fill="transparent" rx="8" ry="8"/></g><g class="matrix-grid"><g><path d="M 152.5 -30 L 262 -30 Q 270 -30 270 -22 L 270 142 Q 270 150 262 150 L -22 150 Q -30 150 -30 142 L -30 -22 Q -30 -30 -22 -30 L 87.5 -30" fill="none" stroke="#64748b" stroke-width="2" stroke-dasharray="6, 6" opacity="0.6"/><text id="group_text_g_1" x="120" y="-24" font-size="20" fill="#64748b" opacity="0.85" font-weight="700" text-anchor="middle" style="cursor: text; pointer-events: all; user-select: none;">hub</text></g><g><path d="M 1440 -10 L 1782 -10 Q 1790 -10 1790 -2 L 1790 302 Q 1790 310 1782 310 L 978 310 Q 970 310 970 302 L 970 -2 Q 970 -10 978 -10 L 1320 -10" fill="none" stroke="#64748b" stroke-width="2" stroke-dasharray="6, 6" opacity="0.6"/><text id="group_text_g_2" x="1380" y="-4" font-size="20" fill="#64748b" opacity="0.85" font-weight="700" text-anchor="middle" style="cursor: text; pointer-events: all; user-select: none;">channels</text></g><g><path d="M 463.5 430 L 782 430 Q 790 430 790 438 L 790 522 Q 790 530 782 530 L 58 530 Q 50 530 50 522 L 50 438 Q 50 430 58 430 L 376.5 430" fill="none" stroke="#64748b" stroke-width="2" stroke-dasharray="6, 6" opacity="0.6"/><text id="group_text_g_3" x="420" y="436" font-size="20" fill="#64748b" opacity="0.85" font-weight="700" text-anchor="middle" style="cursor: text; pointer-events: all; user-select: none;">tools</text></g><g><path d="M 1142 430 L 1142 430 Q 1150 430 1150 438 L 1150 522 Q 1150 530 1142 530 L 1018 530 Q 1010 530 1010 522 L 1010 438 Q 1010 430 1018 430 L 1018 430" fill="none" stroke="#64748b" stroke-width="2" stroke-dasharray="6, 6" opacity="0.6"/><text id="group_text__________" x="1080" y="436" font-size="20" fill="#64748b" opacity="0.85" font-weight="700" text-anchor="middle" style="cursor: text; pointer-events: all; user-select: none;">фыдваофыв</text></g></g><g><g class="" style="cursor: pointer;"><path d="M 180 60 L 1000 60" fill="none" stroke="transparent" stroke-width="20"/><path d="M 180 60 L 1000 60" fill="none" stroke="#111827" stroke-width="2" stroke-dasharray="none" opacity="1" marker-start="none" marker-end="url(#arrow-e1)"/><path id="e1_path" d="M 180 60 L 1000 60" fill="none" stroke="none"/><defs><marker id="arrow-e1" markerWidth="10" markerHeight="6.4" refX="8" refY="3.2" orient="auto-start-reverse"><path d="M 0 0 L 8 3.2 L 0 6.4 z" fill="#111827" stroke="none"/></marker><marker id="cf-one-e1" markerWidth="12" markerHeight="12" refX="10" refY="6" orient="auto-start-reverse"><line x1="8" y1="1" x2="8" y2="11" stroke="#111827" stroke-width="2"/></marker><marker id="cf-many-e1" markerWidth="14" markerHeight="14" refX="12" refY="7" orient="auto-start-reverse"><line x1="12" y1="1" x2="4" y2="7" stroke="#111827" stroke-width="1.5"/><line x1="12" y1="13" x2="4" y2="7" stroke="#111827" stroke-width="1.5"/><line x1="12" y1="7" x2="4" y2="7" stroke="#111827" stroke-width="1.5"/></marker></defs></g><g class="" style="cursor: pointer;"><path d="M 120 0 L 120 -16 Q 120 -20 124 -20 L 1256 -20 Q 1260 -20 1260 -16 L 1260 56 Q 1260 60 1264 60 L 1300 60" fill="none" stroke="transparent" stroke-width="20"/><path d="M 120 0 L 120 -16 Q 120 -20 124 -20 L 1256 -20 Q 1260 -20 1260 -16 L 1260 56 Q 1260 60 1264 60 L 1300 60" fill="none" stroke="#111827" stroke-width="2" stroke-dasharray="none" opacity="1" marker-start="none" marker-end="url(#arrow-e2)"/><path id="e2_path" d="M 120 -20 L 1260 -20" fill="none" stroke="none"/><defs><marker id="arrow-e2" markerWidth="10" markerHeight="6.4" refX="8" refY="3.2" orient="auto-start-reverse"><path d="M 0 0 L 8 3.2 L 0 6.4 z" fill="#111827" stroke="none"/></marker><marker id="cf-one-e2" markerWidth="12" markerHeight="12" refX="10" refY="6" orient="auto-start-reverse"><line x1="8" y1="1" x2="8" y2="11" stroke="#111827" stroke-width="2"/></marker><marker id="cf-many-e2" markerWidth="14" markerHeight="14" refX="12" refY="7" orient="auto-start-reverse"><line x1="12" y1="1" x2="4" y2="7" stroke="#111827" stroke-width="1.5"/><line x1="12" y1="13" x2="4" y2="7" stroke="#111827" stroke-width="1.5"/><line x1="12" y1="7" x2="4" y2="7" stroke="#111827" stroke-width="1.5"/></marker></defs></g><g class="" style="cursor: pointer;"><path d="M 60 60 L 44 60 Q 40 60 40 56 L 40 -36 Q 40 -40 44 -40 L 1676 -40 Q 1680 -40 1680 -36 L 1680 20" fill="none" stroke="transparent" stroke-width="20"/><path d="M 60 60 L 44 60 Q 40 60 40 56 L 40 -36 Q 40 -40 44 -40 L 1676 -40 Q 1680 -40 1680 -36 L 1680 20" fill="none" stroke="#111827" stroke-width="2" stroke-dasharray="none" opacity="1" marker-start="none" marker-end="url(#arrow-e3)"/><path id="e3_path" d="M 40 -40 L 1680 -40" fill="none" stroke="none"/><defs><marker id="arrow-e3" markerWidth="10" markerHeight="6.4" refX="8" refY="3.2" orient="auto-start-reverse"><path d="M 0 0 L 8 3.2 L 0 6.4 z" fill="#111827" stroke="none"/></marker><marker id="cf-one-e3" markerWidth="12" markerHeight="12" refX="10" refY="6" orient="auto-start-reverse"><line x1="8" y1="1" x2="8" y2="11" stroke="#111827" stroke-width="2"/></marker><marker id="cf-many-e3" markerWidth="14" markerHeight="14" refX="12" refY="7" orient="auto-start-reverse"><line x1="12" y1="1" x2="4" y2="7" stroke="#111827" stroke-width="1.5"/><line x1="12" y1="13" x2="4" y2="7" stroke="#111827" stroke-width="1.5"/><line x1="12" y1="7" x2="4" y2="7" stroke="#111827" stroke-width="1.5"/></marker></defs></g><g class="" style="cursor: pointer;"><path d="M 120 120 L 120 236 Q 120 240 124 240 L 1000 240" fill="none" stroke="transparent" stroke-width="20"/><path d="M 120 120 L 120 236 Q 120 240 124 240 L 1000 240" fill="none" stroke="#111827" stroke-width="2" stroke-dasharray="none" opacity="1" marker-start="none" marker-end="url(#arrow-e4)"/><path id="e4_path" d="M 120 240 L 1000 240" fill="none" stroke="none"/><defs><marker id="arrow-e4" markerWidth="10" markerHeight="6.4" refX="8" refY="3.2" orient="auto-start-reverse"><path d="M 0 0 L 8 3.2 L 0 6.4 z" fill="#111827" stroke="none"/></marker><marker id="cf-one-e4" markerWidth="12" markerHeight="12" refX="10" refY="6" orient="auto-start-reverse"><line x1="8" y1="1" x2="8" y2="11" stroke="#111827" stroke-width="2"/></marker><marker id="cf-many-e4" markerWidth="14" markerHeight="14" refX="12" refY="7" orient="auto-start-reverse"><line x1="12" y1="1" x2="4" y2="7" stroke="#111827" stroke-width="1.5"/><line x1="12" y1="13" x2="4" y2="7" stroke="#111827" stroke-width="1.5"/><line x1="12" y1="7" x2="4" y2="7" stroke="#111827" stroke-width="1.5"/></marker></defs></g><g class="" style="cursor: pointer;"><path d="M 171.96 30 L 196.2324247549791 21.343643097368368 Q 200 20 204 20 L 976 20 Q 980 20 980 16 L 980 4 Q 980 0 984 0 L 1236 0 Q 1240 0 1240 4 L 1240 156 Q 1240 160 1244 160 L 1376 160 Q 1380 160 1380 164 L 1380 200" fill="none" stroke="transparent" stroke-width="20"/><path d="M 171.96 30 L 196.2324247549791 21.343643097368368 Q 200 20 204 20 L 976 20 Q 980 20 980 16 L 980 4 Q 980 0 984 0 L 1236 0 Q 1240 0 1240 4 L 1240 156 Q 1240 160 1244 160 L 1376 160 Q 1380 160 1380 164 L 1380 200" fill="none" stroke="#111827" stroke-width="2" stroke-dasharray="none" opacity="1" marker-start="none" marker-end="url(#arrow-e5)"/><path id="e5_path" d="M 200 20 L 980 20" fill="none" stroke="none"/><defs><marker id="arrow-e5" markerWidth="10" markerHeight="6.4" refX="8" refY="3.2" orient="auto-start-reverse"><path d="M 0 0 L 8 3.2 L 0 6.4 z" fill="#111827" stroke="none"/></marker><marker id="cf-one-e5" markerWidth="12" markerHeight="12" refX="10" refY="6" orient="auto-start-reverse"><line x1="8" y1="1" x2="8" y2="11" stroke="#111827" stroke-width="2"/></marker><marker id="cf-many-e5" markerWidth="14" markerHeight="14" refX="12" refY="7" orient="auto-start-reverse"><line x1="12" y1="1" x2="4" y2="7" stroke="#111827" stroke-width="1.5"/><line x1="12" y1="13" x2="4" y2="7" stroke="#111827" stroke-width="1.5"/><line x1="12" y1="7" x2="4" y2="7" stroke="#111827" stroke-width="1.5"/></marker></defs></g><g class="" style="cursor: pointer;"><path d="M 68.03999999999999 30 L 43.76757524502091 21.343643097368368 Q 40 20 36 20 L 24 20 Q 20 20 20 16 L 20 -56 Q 20 -60 24 -60 L 1776 -60 Q 1780 -60 1780 -56 L 1780 156 Q 1780 160 1776 160 L 1684 160 Q 1680 160 1680 164 L 1680 200" fill="none" stroke="transparent" stroke-width="20"/><path d="M 68.03999999999999 30 L 43.76757524502091 21.343643097368368 Q 40 20 36 20 L 24 20 Q 20 20 20 16 L 20 -56 Q 20 -60 24 -60 L 1776 -60 Q 1780 -60 1780 -56 L 1780 156 Q 1780 160 1776 160 L 1684 160 Q 1680 160 1680 164 L 1680 200" fill="none" stroke="#111827" stroke-width="2" stroke-dasharray="none" opacity="1" marker-start="none" marker-end="url(#arrow-e6)"/><path id="e6_path" d="M 20 -60 L 1780 -60" fill="none" stroke="none"/><defs><marker id="arrow-e6" markerWidth="10" markerHeight="6.4" refX="8" refY="3.2" orient="auto-start-reverse"><path d="M 0 0 L 8 3.2 L 0 6.4 z" fill="#111827" stroke="none"/></marker><marker id="cf-one-e6" markerWidth="12" markerHeight="12" refX="10" refY="6" orient="auto-start-reverse"><line x1="8" y1="1" x2="8" y2="11" stroke="#111827" stroke-width="2"/></marker><marker id="cf-many-e6" markerWidth="14" markerHeight="14" refX="12" refY="7" orient="auto-start-reverse"><line x1="12" y1="1" x2="4" y2="7" stroke="#111827" stroke-width="1.5"/><line x1="12" y1="13" x2="4" y2="7" stroke="#111827" stroke-width="1.5"/><line x1="12" y1="7" x2="4" y2="7" stroke="#111827" stroke-width="1.5"/></marker></defs></g><g class="" style="cursor: pointer;"><path d="M 1160 60 L 1176 60 Q 1180 60 1180 64 L 1180 396 Q 1180 400 1176 400 L 124 400 Q 120 400 120 404 L 120 460" fill="none" stroke="transparent" stroke-width="20"/><path d="M 1160 60 L 1176 60 Q 1180 60 1180 64 L 1180 396 Q 1180 400 1176 400 L 124 400 Q 120 400 120 404 L 120 460" fill="none" stroke="#111827" stroke-width="2" stroke-dasharray="none" opacity="1" marker-start="none" marker-end="url(#arrow-e7)"/><path id="e7_path" d="M 120 400 L 1180 400" fill="none" stroke="none"/><defs><marker id="arrow-e7" markerWidth="10" markerHeight="6.4" refX="8" refY="3.2" orient="auto-start-reverse"><path d="M 0 0 L 8 3.2 L 0 6.4 z" fill="#111827" stroke="none"/></marker><marker id="cf-one-e7" markerWidth="12" markerHeight="12" refX="10" refY="6" orient="auto-start-reverse"><line x1="8" y1="1" x2="8" y2="11" stroke="#111827" stroke-width="2"/></marker><marker id="cf-many-e7" markerWidth="14" markerHeight="14" refX="12" refY="7" orient="auto-start-reverse"><line x1="12" y1="1" x2="4" y2="7" stroke="#111827" stroke-width="1.5"/><line x1="12" y1="13" x2="4" y2="7" stroke="#111827" stroke-width="1.5"/><line x1="12" y1="7" x2="4" y2="7" stroke="#111827" stroke-width="1.5"/></marker></defs></g><g class="" style="cursor: pointer;"><path d="M 1600 240 L 1504 240 Q 1500 240 1500 244 L 1500 516 Q 1500 520 1496 520 L 504 520 Q 500 520 500 516 L 500 484 Q 500 480 496 480 L 460 480" fill="none" stroke="transparent" stroke-width="20"/><path d="M 1600 240 L 1504 240 Q 1500 240 1500 244 L 1500 516 Q 1500 520 1496 520 L 504 520 Q 500 520 500 516 L 500 484 Q 500 480 496 480 L 460 480" fill="none" stroke="#111827" stroke-width="2" stroke-dasharray="none" opacity="1" marker-start="none" marker-end="url(#arrow-e8)"/><path id="e8_path" d="M 500 520 L 1500 520" fill="none" stroke="none"/><defs><marker id="arrow-e8" markerWidth="10" markerHeight="6.4" refX="8" refY="3.2" orient="auto-start-reverse"><path d="M 0 0 L 8 3.2 L 0 6.4 z" fill="#111827" stroke="none"/></marker><marker id="cf-one-e8" markerWidth="12" markerHeight="12" refX="10" refY="6" orient="auto-start-reverse"><line x1="8" y1="1" x2="8" y2="11" stroke="#111827" stroke-width="2"/></marker><marker id="cf-many-e8" markerWidth="14" markerHeight="14" refX="12" refY="7" orient="auto-start-reverse"><line x1="12" y1="1" x2="4" y2="7" stroke="#111827" stroke-width="1.5"/><line x1="12" y1="13" x2="4" y2="7" stroke="#111827" stroke-width="1.5"/><line x1="12" y1="7" x2="4" y2="7" stroke="#111827" stroke-width="1.5"/></marker></defs></g><g class="" style="cursor: pointer;"><path d="M 1600 60 L 1484 60 Q 1480 60 1480 64 L 1480 416 Q 1480 420 1476 420 L 724 420 Q 720 420 720 424 L 720 460" fill="none" stroke="transparent" stroke-width="20"/><path d="M 1600 60 L 1484 60 Q 1480 60 1480 64 L 1480 416 Q 1480 420 1476 420 L 724 420 Q 720 420 720 424 L 720 460" fill="none" stroke="#111827" stroke-width="2" stroke-dasharray="none" opacity="1" marker-start="none" marker-end="url(#arrow-e9)"/><path id="e9_path" d="M 720 420 L 1480 420" fill="none" stroke="none"/><defs><marker id="arrow-e9" markerWidth="10" markerHeight="6.4" refX="8" refY="3.2" orient="auto-start-reverse"><path d="M 0 0 L 8 3.2 L 0 6.4 z" fill="#111827" stroke="none"/></marker><marker id="cf-one-e9" markerWidth="12" markerHeight="12" refX="10" refY="6" orient="auto-start-reverse"><line x1="8" y1="1" x2="8" y2="11" stroke="#111827" stroke-width="2"/></marker><marker id="cf-many-e9" markerWidth="14" markerHeight="14" refX="12" refY="7" orient="auto-start-reverse"><line x1="12" y1="1" x2="4" y2="7" stroke="#111827" stroke-width="1.5"/><line x1="12" y1="13" x2="4" y2="7" stroke="#111827" stroke-width="1.5"/><line x1="12" y1="7" x2="4" y2="7" stroke="#111827" stroke-width="1.5"/></marker></defs></g></g><g><g transform="translate(0, 0)" filter="none" class="diagram-node  " data-node-id="brand_1" data-logical-x="120" data-logical-y="60" style="cursor: grab;"><g><circle cx="120" cy="60" r="60" fill="#1e3a8a" stroke="#1e3a8a" stroke-width="2"/><text x="120" y="57.8" text-anchor="middle" dominant-baseline="central" fill="#ffffff" font-size="22" font-weight="normal" font-style="normal" style="pointer-events: none; user-select: none;">Brand</text></g></g><g transform="translate(1000, 20)" filter="none" class="diagram-node  " data-node-id="seo_2" data-logical-x="1080" data-logical-y="60" style="cursor: grab;"><g><rect width="160" height="80" rx="4" ry="4" fill="#60a5fa" stroke="#60a5fa" stroke-width="2"/><rect width="160" height="4" rx="4" fill="#60a5fa" style="clip-path: inset(0px 0px 76px);"/><text x="80" y="38.4" text-anchor="middle" dominant-baseline="central" fill="#1f2937" font-size="16" font-weight="normal" font-style="normal" style="pointer-events: none; user-select: none;">SEO</text></g></g><g transform="translate(1300, 20)" filter="none" class="diagram-node  " data-node-id="social_media_3" data-logical-x="1380" data-logical-y="60" style="cursor: grab;"><g><rect width="160" height="80" rx="4" ry="4" fill="#60a5fa" stroke="#60a5fa" stroke-width="2"/><rect width="160" height="4" rx="4" fill="#60a5fa" style="clip-path: inset(0px 0px 76px);"/><text x="80" y="38.4" text-anchor="middle" dominant-baseline="central" fill="#1f2937" font-size="16" font-weight="normal" font-style="normal" style="pointer-events: none; user-select: none;">Social Media</text></g></g><g transform="translate(1600, 20)" filter="none" class="diagram-node  " data-node-id="email_4" data-logical-x="1680" data-logical-y="60" style="cursor: grab;"><g><rect width="160" height="80" rx="4" ry="4" fill="#60a5fa" stroke="#60a5fa" stroke-width="2"/><rect width="160" height="4" rx="4" fill="#60a5fa" style="clip-path: inset(0px 0px 76px);"/><text x="80" y="38.4" text-anchor="middle" dominant-baseline="central" fill="#1f2937" font-size="16" font-weight="normal" font-style="normal" style="pointer-events: none; user-select: none;">Email</text></g></g><g transform="translate(1000, 200)" filter="none" class="diagram-node  " data-node-id="events_5" data-logical-x="1080" data-logical-y="240" style="cursor: grab;"><g><rect width="160" height="80" rx="4" ry="4" fill="#60a5fa" stroke="#60a5fa" stroke-width="2"/><rect width="160" height="4" rx="4" fill="#60a5fa" style="clip-path: inset(0px 0px 76px);"/><text x="80" y="38.4" text-anchor="middle" dominant-baseline="central" fill="#1f2937" font-size="16" font-weight="normal" font-style="normal" style="pointer-events: none; user-select: none;">Events</text></g></g><g transform="translate(1300, 200)" filter="none" class="diagram-node  " data-node-id="pr_6" data-logical-x="1380" data-logical-y="240" style="cursor: grab;"><g><rect width="160" height="80" rx="4" ry="4" fill="#60a5fa" stroke="#60a5fa" stroke-width="2"/><rect width="160" height="4" rx="4" fill="#60a5fa" style="clip-path: inset(0px 0px 76px);"/><text x="80" y="38.4" text-anchor="middle" dominant-baseline="central" fill="#1f2937" font-size="16" font-weight="normal" font-style="normal" style="pointer-events: none; user-select: none;">PR</text></g></g><g transform="translate(1600, 200)" filter="none" class="diagram-node  " data-node-id="content_7" data-logical-x="1680" data-logical-y="240" style="cursor: grab;"><g><rect width="160" height="80" rx="4" ry="4" fill="#60a5fa" stroke="#60a5fa" stroke-width="2"/><rect width="160" height="4" rx="4" fill="#60a5fa" style="clip-path: inset(0px 0px 76px);"/><text x="80" y="38.4" text-anchor="middle" dominant-baseline="central" fill="#1f2937" font-size="16" font-weight="normal" font-style="normal" style="pointer-events: none; user-select: none;">Content</text></g></g><g transform="translate(80, 460)" filter="none" class="diagram-node  " data-node-id="analytics_8" data-logical-x="120" data-logical-y="480" style="cursor: grab;"><g><rect width="80" height="40" rx="4" ry="4" fill="#bfdbfe" stroke="#bfdbfe" stroke-width="2"/><rect width="80" height="4" rx="4" fill="#bfdbfe" style="clip-path: inset(0px 0px 36px);"/><text x="40" y="18.9" text-anchor="middle" dominant-baseline="central" fill="#1f2937" font-size="11" font-weight="normal" font-style="normal" style="pointer-events: none; user-select: none;">Analytics</text></g></g><g transform="translate(380, 460)" filter="none" class="diagram-node  " data-node-id="blog_9" data-logical-x="420" data-logical-y="480" style="cursor: grab;"><g><rect width="80" height="40" rx="4" ry="4" fill="#1e3a8a" stroke="#1e3a8a" stroke-width="2"/><rect width="80" height="4" rx="4" fill="#1e3a8a" style="clip-path: inset(0px 0px 36px);"/><text x="40" y="18.9" text-anchor="middle" dominant-baseline="central" fill="#ffffff" font-size="11" font-weight="normal" font-style="normal" style="pointer-events: none; user-select: none;">Blog</text></g></g><g transform="translate(680, 460)" filter="none" class="diagram-node  " data-node-id="newsletter_10" data-logical-x="720" data-logical-y="480" style="cursor: grab;"><g><rect width="80" height="40" rx="4" ry="4" fill="#bfdbfe" stroke="#bfdbfe" stroke-width="2"/><rect width="80" height="4" rx="4" fill="#bfdbfe" style="clip-path: inset(0px 0px 36px);"/><text x="40" y="18.9" text-anchor="middle" dominant-baseline="central" fill="#1f2937" font-size="11" font-weight="normal" font-style="normal" style="pointer-events: none; user-select: none;">Newsletter</text></g></g><g transform="translate(1040, 460)" filter="none" class="diagram-node  " data-node-id="1" data-logical-x="1080" data-logical-y="480" style="cursor: grab;"><g><path d="M 1.163749166987774 21.380014628680414 Q -1.5 20 1.163749166987774 18.619985371319586 L 37.33625083301223 -0.11998537131958686 Q 40 -1.5 42.66374916698777 -0.11998537131958686 L 78.83625083301223 18.619985371319586 Q 81.5 20 78.83625083301223 21.380014628680414 L 42.66374916698777 40.119985371319586 Q 40 41.5 37.33625083301223 40.119985371319586 Z" fill="#bfdbfe" stroke="#bfdbfe" stroke-width="2"/><text x="40" y="19.2" text-anchor="middle" dominant-baseline="central" fill="#1f2937" font-size="8" font-weight="normal" font-style="normal" style="pointer-events: none; user-select: none;">New</text></g></g><g transform="translate(-260, -520)" filter="none" class="diagram-node  " data-node-id="__SYSTEM_TITLE__" data-logical-x="60" data-logical-y="-480" style="cursor: grab;"><g><rect x="75.0078125" y="-3.6000000000000014" width="489.984375" height="87.2" fill="transparent" stroke="none"/><text x="320" y="34.4" text-anchor="middle" dominant-baseline="central" fill="#111827" font-size="56" font-weight="normal" font-style="normal" style="pointer-events: none; user-select: none;">Marketing Strategy</text></g></g></g><g/></g></svg>